<svg width="31" height="20" viewBox="0 0 31 20" fill="none" xmlns="http://www.w3.org/2000/svg">
<path d="M18.7764 9.04648C18.866 9.52828 18.9299 10.0101 18.9299 10.6351C18.9299 16.091 15.3359 19.9583 9.92578 19.9583C4.7459 19.9583 0.550781 15.6874 0.550781 10.4137C0.550781 5.1401 4.7459 0.869141 9.92578 0.869141C12.4582 0.869141 14.5685 1.80665 16.2056 3.36923L13.6604 5.85629C12.9697 5.17917 11.7547 4.38488 9.92578 4.38488C6.72832 4.38488 4.11914 7.08029 4.11914 10.4137C4.11914 13.7472 6.72832 16.4426 9.92578 16.4426C13.6348 16.4426 15.029 13.7211 15.2463 12.3278H9.92578V9.04643H18.7764V9.04648ZM27.8294 9.36647V6.5959H25.095V9.36647H22.3737V12.1504H25.095V14.9209H27.8294V12.1504H30.5508V9.36647H27.8294Z" fill="white"/>
</svg>
