<svg width="23" height="21" viewBox="0 0 23 21" fill="none" xmlns="http://www.w3.org/2000/svg">
<g clip-path="url(#clip0_1149_6382)">
<path d="M19.123 9.00781H18.0856V6.19531C18.0856 2.92187 15.1379 0.257812 11.5158 0.257812C7.89378 0.257812 4.946 2.92187 4.946 6.19531V9.00781H3.90866C2.76327 9.00781 1.83398 9.84766 1.83398 10.8828V18.3828C1.83398 19.418 2.76327 20.2578 3.90866 20.2578H19.123C20.2684 20.2578 21.1977 19.418 21.1977 18.3828V10.8828C21.1977 9.84766 20.2684 9.00781 19.123 9.00781ZM14.6278 9.00781H8.4038V6.19531C8.4038 4.64453 9.79989 3.38281 11.5158 3.38281C13.2318 3.38281 14.6278 4.64453 14.6278 6.19531V9.00781Z" fill="#783BA2"/>
</g>
<defs>
<clipPath id="clip0_1149_6382">
<rect width="22.1299" height="20" fill="white" transform="translate(0.451172 0.257812)"/>
</clipPath>
</defs>
</svg>
