<svg width="22" height="17" viewBox="0 0 22 17" fill="none" xmlns="http://www.w3.org/2000/svg">
<path d="M20.7971 6.24427C20.9551 6.1151 21.1902 6.23594 21.1902 6.4401V14.9609C21.1902 16.0651 20.3189 16.9609 19.2451 16.9609H2.38837C1.31456 16.9609 0.443359 16.0651 0.443359 14.9609V6.44427C0.443359 6.23594 0.67433 6.11927 0.836414 6.24844C1.74409 6.97344 2.94756 7.89427 7.08071 10.9818C7.93571 11.6234 9.37826 12.9734 10.8168 12.9651C12.2634 12.9776 13.7343 11.5984 14.5569 10.9818C18.69 7.89427 19.8894 6.96927 20.7971 6.24427ZM10.8168 11.6276C11.7568 11.6443 13.1102 10.4109 13.791 9.9026C19.1681 5.8901 19.5774 5.5401 20.8174 4.5401C21.0524 4.3526 21.1902 4.06094 21.1902 3.7526V2.96094C21.1902 1.85677 20.3189 0.960938 19.2451 0.960938H2.38837C1.31456 0.960937 0.443359 1.85677 0.443359 2.96094V3.7526C0.443359 4.06094 0.581131 4.34844 0.816153 4.5401C2.0561 5.53594 2.46536 5.8901 7.84251 9.9026C8.52326 10.4109 9.87667 11.6443 10.8168 11.6276Z" fill="#783BA2"/>
</svg>
