<svg width="18" height="22" viewBox="0 0 18 22" fill="none" xmlns="http://www.w3.org/2000/svg">
<path d="M8.4146 20.6939C2.13446 12.005 0.96875 11.1133 0.96875 7.92C0.96875 3.54589 4.6842 0 9.26747 0C13.8507 0 17.5662 3.54589 17.5662 7.92C17.5662 11.1133 16.4005 12.005 10.1203 20.6939C9.70821 21.2621 8.82668 21.262 8.4146 20.6939ZM9.26747 11.22C11.1772 11.22 12.7253 9.74255 12.7253 7.92C12.7253 6.09745 11.1772 4.62 9.26747 4.62C7.35777 4.62 5.80967 6.09745 5.80967 7.92C5.80967 9.74255 7.35777 11.22 9.26747 11.22Z" fill="#783BA2"/>
</svg>
