<svg width="18" height="17" viewBox="0 0 18 17" fill="none" xmlns="http://www.w3.org/2000/svg">
<g clip-path="url(#clip0_1149_6672)">
<path d="M8.90625 9.21829C11.5459 9.21829 13.6875 7.15378 13.6875 4.60915C13.6875 2.06451 11.5459 0 8.90625 0C6.2666 0 4.125 2.06451 4.125 4.60915C4.125 7.15378 6.2666 9.21829 8.90625 9.21829ZM13.1562 10.2425H11.3268C10.5896 10.569 9.76953 10.7547 8.90625 10.7547C8.04297 10.7547 7.22617 10.569 6.48574 10.2425H4.65625C2.30879 10.2425 0.40625 12.0766 0.40625 14.3396V14.8517C0.40625 15.6999 1.12012 16.3881 2 16.3881H15.8125C16.6924 16.3881 17.4062 15.6999 17.4062 14.8517V14.3396C17.4062 12.0766 15.5037 10.2425 13.1562 10.2425Z" fill="#783BA2"/>
</g>
<defs>
<clipPath id="clip0_1149_6672">
<rect width="17" height="16.3881" fill="white" transform="translate(0.40625)"/>
</clipPath>
</defs>
</svg>
