<svg width="22" height="16" viewBox="0 0 22 16" fill="none" xmlns="http://www.w3.org/2000/svg">
<path d="M7.527 8C9.81887 8 11.6764 6.20937 11.6764 4C11.6764 1.79063 9.81887 0 7.527 0C5.23513 0 3.37764 1.79063 3.37764 4C3.37764 6.20937 5.23513 8 7.527 8ZM10.4315 9H9.89019C9.17053 9.31875 8.36984 9.5 7.527 9.5C6.68416 9.5 5.88671 9.31875 5.16381 9H4.62245C2.21712 9 0.265625 10.8813 0.265625 13.2V14.5C0.265625 15.3281 0.962587 16 1.82163 16H13.2324C14.0914 16 14.7884 15.3281 14.7884 14.5V13.2C14.7884 10.8813 12.8369 9 10.4315 9ZM20.9022 4.9875L20.001 4.10938C19.8519 3.9625 19.6088 3.9625 19.4564 4.10625L16.0591 7.35625L14.5841 5.925C14.435 5.77813 14.1919 5.77812 14.0395 5.92188L13.1286 6.79375C12.9763 6.9375 12.9763 7.17188 13.1254 7.31875L15.7738 9.89062C15.923 10.0375 16.1661 10.0375 16.3184 9.89375L20.8989 5.5125C21.0481 5.36562 21.0513 5.13125 20.9022 4.9875Z" fill="#783BA2"/>
</svg>
